<svg width="163" height="28" viewBox="0 0 163 28" fill="none" xmlns="http://www.w3.org/2000/svg">
<path d="M26.8408 3.79297C26.8408 3.91016 26.8213 4.00781 26.7822 4.08594C26.7432 4.16406 26.6797 4.26172 26.5918 4.37891C26.5137 4.49609 26.4453 4.59863 26.3867 4.68652C26.3281 4.77441 26.2988 4.85742 26.2988 4.93555C26.2988 4.95508 26.2891 4.98926 26.2695 5.03809C26.2598 5.08691 26.2451 5.16016 26.2256 5.25781C26.1768 5.43359 26.1328 5.58008 26.0938 5.69727C26.0547 5.80469 26.0303 5.88281 26.0205 5.93164C25.9229 6.27344 25.8545 6.60547 25.8154 6.92773C25.7764 7.25 25.7568 7.60645 25.7568 7.99707C25.7568 8.71973 25.7275 9.45215 25.6689 10.1943C25.6494 10.5654 25.6152 10.9561 25.5664 11.3662C25.5273 11.7666 25.4834 12.1914 25.4346 12.6406C25.3857 13.0898 25.3369 13.5195 25.2881 13.9297C25.249 14.3398 25.2051 14.7354 25.1562 15.1162C25.0879 15.7998 25.0342 16.5127 24.9951 17.2549C24.9658 17.9873 24.9512 18.7539 24.9512 19.5547C24.9512 20.0918 24.9609 20.7803 24.9805 21.6201C25 22.4502 25.0195 23.4121 25.0391 24.5059C25.1562 24.623 25.3369 24.7695 25.5811 24.9453C25.8545 25.1211 26.0498 25.2725 26.167 25.3994C26.2939 25.5166 26.3574 25.6777 26.3574 25.8828C26.3574 26.2539 26.1621 26.6152 25.7715 26.9668C25.3711 27.3184 24.9854 27.4941 24.6143 27.4941C23.6279 27.4941 22.9688 26.8301 22.6367 25.502C22.2949 24.1543 22.124 22.792 22.124 21.415C22.124 20.9756 22.1533 20.5361 22.2119 20.0967C22.2705 19.6572 22.3242 19.2129 22.373 18.7637C22.4023 18.4512 22.4463 18.002 22.5049 17.416C22.5732 16.8203 22.6562 16.083 22.7539 15.2041C22.8516 14.3252 22.9248 13.6562 22.9736 13.1973C23.0225 12.7285 23.0518 12.4551 23.0615 12.377C23.0713 12.3086 23.0811 12.1963 23.0908 12.04C23.1104 11.8838 23.1348 11.6787 23.1641 11.4248C23.2324 10.917 23.2812 10.4775 23.3105 10.1064C23.3398 9.73535 23.3545 9.44238 23.3545 9.22754C23.3643 9.15918 23.3691 9.0957 23.3691 9.03711C23.3789 8.97852 23.3838 8.90039 23.3838 8.80273C23.3838 8.73437 23.335 8.60742 23.2373 8.42188C23.0713 8.64648 22.876 8.91016 22.6514 9.21289C22.4268 9.51562 22.1729 9.85742 21.8896 10.2383C21.3135 11 20.8447 11.6299 20.4834 12.1279C20.2979 12.3721 20.1123 12.6162 19.9268 12.8604C19.751 13.1045 19.5703 13.3486 19.3848 13.5928C19.1992 13.8369 18.9844 14.1201 18.7402 14.4424C18.5059 14.7549 18.2422 15.1162 17.9492 15.5264C17.3145 16.4053 16.6846 17.2988 16.0596 18.207C16.0303 18.2559 15.9814 18.3291 15.9131 18.4268C15.8447 18.5244 15.7568 18.6514 15.6494 18.8076C15.4346 19.1299 15.3125 19.3057 15.2832 19.335C14.5996 20.2334 13.9697 20.7656 13.3936 20.9316C12.4561 20.6582 11.8164 20.2285 11.4746 19.6426C11.3867 19.4863 11.3086 19.3496 11.2402 19.2324C11.1816 19.1152 11.123 19.0078 11.0645 18.9102C11.0059 18.8027 10.9473 18.7002 10.8887 18.6025C10.8301 18.4951 10.7666 18.3828 10.6982 18.2656C10.5029 17.9238 10.3271 17.6113 10.1709 17.3281C10.0146 17.0449 9.87305 16.791 9.74609 16.5664C9.50195 16.1172 9.2627 15.6387 9.02832 15.1309C8.79395 14.6133 8.5791 14.0762 8.38379 13.5195C8.2666 13.1484 8.16895 12.8457 8.09082 12.6113C8.0127 12.3672 7.9541 12.1914 7.91504 12.084C7.87598 11.9668 7.82715 11.8105 7.76855 11.6152C7.70996 11.4199 7.6416 11.1855 7.56348 10.9121C7.48535 10.6387 7.39746 10.3604 7.2998 10.0771C7.21191 9.79395 7.11914 9.50586 7.02148 9.21289C6.82617 8.59766 6.71875 8.26562 6.69922 8.2168C6.63086 8.49023 6.5332 8.83691 6.40625 9.25684C6.28906 9.67676 6.16211 10.126 6.02539 10.6045C5.89844 11.0732 5.77148 11.5469 5.64453 12.0254C5.51758 12.5039 5.41016 12.9336 5.32227 13.3145C5.22461 13.7051 5.13184 14.0762 5.04395 14.4277C4.96582 14.7695 4.8877 15.0967 4.80957 15.4092C4.64355 16.0146 4.39453 16.9668 4.0625 18.2656C3.84766 19.0859 3.74023 19.8965 3.74023 20.6973C3.74023 20.8633 3.75488 21.0879 3.78418 21.3711C3.81348 21.6445 3.8623 21.9814 3.93066 22.3818C3.99902 22.7725 4.04785 23.124 4.07715 23.4365C4.10645 23.749 4.12109 24.0225 4.12109 24.2568C4.12109 24.5107 3.98926 24.8281 3.72559 25.209C3.46191 25.5801 3.20312 25.7656 2.94922 25.7656C2.86133 25.7656 2.72949 25.7559 2.55371 25.7363C2.37793 25.7168 2.24121 25.707 2.14355 25.707C1.59668 25.707 1.20117 25.3799 0.957031 24.7256C0.712891 24.0811 0.59082 23.4072 0.59082 22.7041C0.59082 22.5088 0.639648 22.2207 0.737305 21.8398C0.786133 21.6445 0.844727 21.4102 0.913086 21.1367C0.981445 20.8535 1.05957 20.541 1.14746 20.1992C1.24512 19.8574 1.31836 19.5889 1.36719 19.3936C1.41602 19.1982 1.44531 19.0811 1.45508 19.042C1.66992 18.2119 1.86523 17.4697 2.04102 16.8154C2.2168 16.1514 2.37305 15.5654 2.50977 15.0576C2.64648 14.5498 2.78809 14.0225 2.93457 13.4756C3.08105 12.9189 3.2373 12.333 3.40332 11.7178C3.59863 11.0146 3.76465 10.4238 3.90137 9.94531C4.04785 9.45703 4.16504 8.97852 4.25293 8.50977C4.33105 7.97266 4.38965 7.61133 4.42871 7.42578C4.47754 7.18164 4.5459 6.93262 4.63379 6.67871C4.72168 6.4248 4.81934 6.1709 4.92676 5.91699C5.1416 5.38965 5.41504 5.12598 5.74707 5.12598C6.46973 5.12598 7.0459 5.19434 7.47559 5.33105C7.89551 5.45801 8.24707 5.77539 8.53027 6.2832C8.66699 6.50781 8.78418 6.7373 8.88184 6.97168C8.97949 7.19629 9.0625 7.43066 9.13086 7.6748C9.19922 7.90918 9.27246 8.18262 9.35059 8.49512C9.42871 8.79785 9.50684 9.14453 9.58496 9.53516C9.62402 9.74023 9.68262 9.94043 9.76074 10.1357C9.83887 10.3311 9.92188 10.5508 10.0098 10.7949C10.7617 13.0898 11.8896 15.3701 13.3936 17.6357C13.4424 17.5869 13.5986 17.4697 13.8623 17.2842C13.9893 17.1865 14.0967 17.0986 14.1846 17.0205C14.2822 16.9424 14.3604 16.8643 14.4189 16.7861C14.5557 16.6201 14.6973 16.4346 14.8438 16.2295C14.9902 16.0146 15.1318 15.7803 15.2686 15.5264C15.5615 15.0186 15.835 14.5449 16.0889 14.1055C16.3525 13.666 16.6455 13.2705 16.9678 12.9189C17.124 12.7529 17.3047 12.543 17.5098 12.2891C17.7246 12.0254 17.9688 11.7178 18.2422 11.3662C18.5156 11.0146 18.7549 10.707 18.96 10.4434C19.1748 10.1797 19.3506 9.96484 19.4873 9.79883C19.6533 9.61328 19.8047 9.43262 19.9414 9.25684C20.0879 9.08105 20.2246 8.91016 20.3516 8.74414C20.4785 8.57813 20.6201 8.3877 20.7764 8.17285C20.9424 7.95801 21.123 7.71875 21.3184 7.45508C21.4062 7.34766 21.5479 7.17676 21.7432 6.94238C21.8408 6.8252 21.9238 6.72266 21.9922 6.63477C22.0703 6.53711 22.1338 6.4541 22.1826 6.38574C22.3584 6.1416 22.5488 5.86328 22.7539 5.55078C22.9688 5.23828 23.1982 4.87695 23.4424 4.4668C23.6963 4.05664 23.9209 3.70508 24.1162 3.41211C24.3115 3.10937 24.4775 2.86035 24.6143 2.66504C24.6729 2.57715 24.7754 2.5332 24.9219 2.5332C25.0586 2.52344 25.2393 2.5625 25.4639 2.65039C25.6885 2.73828 25.9033 2.85059 26.1084 2.9873C26.3232 3.11426 26.5039 3.25098 26.6504 3.39746C26.7969 3.54395 26.8604 3.67578 26.8408 3.79297ZM49.3555 14.9551C49.3555 15.1113 49.248 15.3701 49.0332 15.7314C48.6426 16.3564 48.1543 17.0303 47.5684 17.7529C46.9922 18.4756 46.3477 19.2031 45.6348 19.9355C44.9316 20.6582 44.1797 21.3564 43.3789 22.0303C42.5879 22.7041 41.7822 23.2998 40.9619 23.8174C40.1416 24.3252 39.3311 24.7354 38.5303 25.0479C37.7295 25.3604 36.9678 25.5166 36.2451 25.5166H36.1426C34.4727 25.5166 33.2227 25.0381 32.3926 24.0811C31.5625 23.124 31.1475 21.791 31.1475 20.082C31.1475 19.3984 31.2012 18.6758 31.3086 17.9141C31.416 17.1523 31.6016 16.3809 31.8652 15.5996C32.1387 14.8086 32.5049 14.0225 32.9639 13.2412C33.4326 12.4502 34.0234 11.6885 34.7363 10.9561C35.2734 10.4189 35.8398 10.0088 36.4355 9.72559C37.0312 9.43262 37.5928 9.28613 38.1201 9.28613C38.1982 9.28613 38.3008 9.30566 38.4277 9.34473C38.5547 9.38379 38.6816 9.4375 38.8086 9.50586C38.9453 9.56445 39.0723 9.64258 39.1895 9.74023C39.3164 9.82812 39.4238 9.92578 39.5117 10.0332C39.7852 10.3848 39.9854 10.7217 40.1123 11.0439C40.2393 11.3662 40.3027 11.7422 40.3027 12.1719C40.3027 12.7383 40.2246 13.2559 40.0684 13.7246C39.9121 14.1836 39.6875 14.6328 39.3945 15.0723C39.1016 15.5117 38.7402 15.9561 38.3105 16.4053C37.8809 16.8447 37.3877 17.3232 36.8311 17.8408C36.6455 18.0166 36.4258 18.2119 36.1719 18.4268C35.918 18.6416 35.6445 18.8662 35.3516 19.1006C35.0586 19.335 34.7559 19.5791 34.4434 19.833C34.1309 20.0869 33.8232 20.3359 33.5205 20.5801C33.5986 22.3281 34.5703 23.2021 36.4355 23.2021C37.4707 23.2021 38.5742 22.9287 39.7461 22.3818C40.3223 22.1084 40.8594 21.7959 41.3574 21.4443C41.8555 21.083 42.3438 20.7168 42.8223 20.3457C43.0566 20.1602 43.3154 19.9404 43.5986 19.6865C43.8818 19.4326 44.1699 19.1641 44.4629 18.8809C44.7656 18.5977 45.0635 18.3145 45.3564 18.0312C45.6592 17.748 45.9424 17.4795 46.2061 17.2256C46.3721 17.0596 46.5479 16.8838 46.7334 16.6982C46.9287 16.5127 47.1338 16.3125 47.3486 16.0977L48.1396 15.3066C48.6182 14.8867 48.9648 14.6768 49.1797 14.6768C49.2969 14.6768 49.3555 14.7695 49.3555 14.9551ZM38.0762 12.7578C38.0762 12.4648 37.998 12.2109 37.8418 11.9961C37.6855 11.7715 37.4951 11.6592 37.2705 11.6592C37.1045 11.6592 36.8896 11.7275 36.626 11.8643C36.3721 12.001 36.0986 12.2451 35.8057 12.5967C35.21 13.3193 34.7021 14.1934 34.2822 15.2188C33.8623 16.2344 33.5693 17.3672 33.4033 18.6172C34.0186 18.1191 34.5361 17.6748 34.9561 17.2842C35.3857 16.8936 35.7715 16.5273 36.1133 16.1855C36.3477 15.9512 36.5771 15.7021 36.8018 15.4385C37.0361 15.1748 37.2461 14.8965 37.4316 14.6035C37.627 14.3105 37.7832 14.0078 37.9004 13.6953C38.0176 13.3828 38.0762 13.0703 38.0762 12.7578ZM65.835 20.6387C65.835 20.7266 65.8154 20.8291 65.7764 20.9463C65.7373 21.0635 65.6885 21.1855 65.6299 21.3125C65.5713 21.4395 65.5078 21.5615 65.4395 21.6787C65.3711 21.7861 65.3076 21.8838 65.249 21.9717C65.0635 22.2256 64.8291 22.4795 64.5459 22.7334C64.2725 22.9873 63.96 23.2217 63.6084 23.4365C63.2666 23.6416 62.8906 23.8125 62.4805 23.9492C62.0801 24.0762 61.6602 24.1396 61.2207 24.1396C60.6543 24.1396 60.1318 24.0469 59.6533 23.8613C59.1846 23.666 58.7646 23.3633 58.3936 22.9531C58.0322 22.543 57.7197 22.0107 57.4561 21.3564C57.2021 20.7021 57.002 19.9111 56.8555 18.9834C56.582 19.3447 56.2598 19.7646 55.8887 20.2432C55.5273 20.7217 55.127 21.21 54.6875 21.708C54.2578 22.2061 53.7988 22.6992 53.3105 23.1875C52.832 23.666 52.3486 24.0957 51.8604 24.4766C51.3721 24.8574 50.8887 25.165 50.4102 25.3994C49.9414 25.6338 49.4922 25.751 49.0625 25.751C48.9648 25.751 48.8037 25.6875 48.5791 25.5605C48.3643 25.4238 48.1396 25.2529 47.9053 25.0479C47.6709 24.8428 47.4512 24.6084 47.2461 24.3447C47.041 24.0811 46.9043 23.8174 46.8359 23.5537C46.6699 22.9775 46.5869 22.3916 46.5869 21.7959C46.5869 21.1904 46.6357 20.5947 46.7334 20.0088C46.8506 19.3545 47.0215 18.6709 47.2461 17.958C47.4805 17.2451 47.7197 16.5518 47.9639 15.8779C48.208 15.1943 48.4277 14.5498 48.623 13.9443C48.8184 13.3291 48.9355 12.792 48.9746 12.333C49.0137 12.2646 49.0918 12.1865 49.209 12.0986C49.3262 12.001 49.4531 11.9131 49.5898 11.835C49.7266 11.7471 49.8584 11.6787 49.9854 11.6299C50.1221 11.5713 50.2295 11.542 50.3076 11.542C50.4248 11.542 50.5518 11.5811 50.6885 11.6592C50.8252 11.7373 50.9521 11.835 51.0693 11.9521C51.1865 12.0693 51.2793 12.1914 51.3477 12.3184C51.4258 12.4453 51.4648 12.5576 51.4648 12.6553C51.4648 12.7334 51.4355 12.8652 51.377 13.0508C51.3281 13.2363 51.2598 13.4512 51.1719 13.6953C51.084 13.9297 50.9814 14.1787 50.8643 14.4424C50.7471 14.6963 50.6299 14.9307 50.5127 15.1455C50.2881 15.6631 50.0635 16.1562 49.8389 16.625C49.624 17.084 49.4287 17.5479 49.2529 18.0166C49.0771 18.4756 48.9307 18.959 48.8135 19.4668C48.7061 19.9648 48.6523 20.5117 48.6523 21.1074C48.6523 21.2637 48.6719 21.4639 48.7109 21.708C48.75 21.9424 48.8037 22.1768 48.8721 22.4111C48.9502 22.6357 49.043 22.8311 49.1504 22.9971C49.2676 23.1533 49.4043 23.2314 49.5605 23.2314C49.7168 23.2314 49.8926 23.1924 50.0879 23.1143C50.2832 23.0361 50.4834 22.9434 50.6885 22.8359C50.8936 22.7188 51.0889 22.5967 51.2744 22.4697C51.4697 22.333 51.6406 22.2109 51.7871 22.1035C52.168 21.8203 52.5488 21.4883 52.9297 21.1074C53.3203 20.7266 53.6816 20.3408 54.0137 19.9502C54.3555 19.5596 54.6582 19.1934 54.9219 18.8516C55.1953 18.5 55.4004 18.2168 55.5371 18.002C55.752 17.6602 55.9521 17.2891 56.1377 16.8887C56.333 16.4785 56.5137 16.0732 56.6797 15.6729C56.8555 15.2627 57.0312 14.8672 57.207 14.4863C57.3828 14.0957 57.5635 13.7539 57.749 13.4609C57.9443 13.168 58.1494 12.9336 58.3643 12.7578C58.5791 12.5723 58.8232 12.4795 59.0967 12.4795C59.3115 12.4795 59.4727 12.5186 59.5801 12.5967C59.6973 12.6748 59.7803 12.7725 59.8291 12.8896C59.8877 13.0068 59.9219 13.1338 59.9316 13.2705C59.9414 13.4072 59.9463 13.5342 59.9463 13.6514C59.9463 13.7295 59.8877 13.9053 59.7705 14.1787C59.6533 14.4424 59.5264 14.7646 59.3896 15.1455C59.2529 15.5166 59.126 15.9268 59.0088 16.376C58.8916 16.8154 58.833 17.25 58.833 17.6797C58.833 18.3145 58.9014 18.9004 59.0381 19.4375C59.1748 19.9746 59.3652 20.4434 59.6094 20.8438C59.8535 21.2441 60.1416 21.5566 60.4736 21.7812C60.8154 22.0059 61.1865 22.1182 61.5869 22.1182C62.0264 22.1182 62.5 22.0352 63.0078 21.8691C63.5156 21.7031 64.0088 21.4443 64.4873 21.0928C64.5166 21.0635 64.5752 21.0098 64.6631 20.9316C64.7607 20.8438 64.8633 20.7559 64.9707 20.668C65.0879 20.5801 65.1953 20.502 65.293 20.4336C65.3906 20.3652 65.4639 20.3311 65.5127 20.3311C65.5908 20.3311 65.6641 20.3555 65.7324 20.4043C65.8008 20.4531 65.835 20.5312 65.835 20.6387ZM80.3223 17.2695C80.752 17.1621 81.1865 17.0498 81.626 16.9326C82.0752 16.8154 82.4902 16.6982 82.8711 16.5811C82.7148 16.1025 82.5537 15.6045 82.3877 15.0869C82.2217 14.5693 82.0459 14.0566 81.8604 13.5488C81.6846 13.0312 81.5039 12.5332 81.3184 12.0547C81.1328 11.5664 80.9375 11.1221 80.7324 10.7217C79.9023 11.8545 79.0674 13.0459 78.2275 14.2959C77.3975 15.5459 76.6064 16.8203 75.8545 18.1191C76.1475 18.0898 76.4551 18.0703 76.7773 18.0605C77.0996 18.041 77.3584 18.002 77.5537 17.9434C77.8174 17.8652 78.0518 17.7969 78.2568 17.7383C78.4717 17.6797 78.6816 17.626 78.8867 17.5771C79.1016 17.5283 79.3213 17.4795 79.5459 17.4307C79.7705 17.3818 80.0293 17.3281 80.3223 17.2695ZM90.1074 24.6523C90.1074 24.8965 90.0586 25.126 89.9609 25.3408C89.873 25.5557 89.7461 25.7461 89.5801 25.9121C89.4238 26.0684 89.2285 26.1953 88.9941 26.293C88.7695 26.3906 88.5254 26.4395 88.2617 26.4395C88.0176 26.4395 87.7783 26.3613 87.5439 26.2051C87.3096 26.0488 87.0801 25.8486 86.8555 25.6045C86.6406 25.3604 86.4307 25.0869 86.2256 24.7842C86.0303 24.4717 85.8496 24.1592 85.6836 23.8467C85.5273 23.5342 85.3857 23.2363 85.2588 22.9531C85.1318 22.6699 85.0293 22.4355 84.9512 22.25C84.8438 21.9863 84.7363 21.7422 84.6289 21.5176C84.5215 21.293 84.4092 21.0049 84.292 20.6533C84.2236 20.458 84.1699 20.3115 84.1309 20.2139C84.1016 20.1162 84.0723 20.043 84.043 19.9941C84.0234 19.9355 84.0039 19.8916 83.9844 19.8623C83.9746 19.8232 83.96 19.7695 83.9404 19.7012C83.7451 19.7891 83.5352 19.8428 83.3105 19.8623C83.0859 19.8721 82.8369 19.877 82.5635 19.877C82.5146 19.877 82.4316 19.8965 82.3145 19.9355C82.1973 19.9648 82.0605 20.0039 81.9043 20.0527C81.7578 20.1016 81.6016 20.1553 81.4355 20.2139C81.2793 20.2627 81.1279 20.3066 80.9814 20.3457C80.5127 20.4629 80.0049 20.5752 79.458 20.6826C78.9111 20.79 78.3398 20.8975 77.7441 21.0049C77.1484 21.1025 76.5381 21.2051 75.9131 21.3125C75.2979 21.4102 74.6777 21.5127 74.0527 21.6201C73.9844 21.6299 73.9258 21.6494 73.877 21.6787C73.8281 21.708 73.7598 21.7861 73.6719 21.9131C73.584 22.0303 73.4521 22.2158 73.2764 22.4697C73.1006 22.7236 72.8516 23.085 72.5293 23.5537C72.1582 24.0908 71.8066 24.5596 71.4746 24.96C71.1426 25.3506 70.8301 25.6875 70.5371 25.9707C70.2539 26.2539 69.9512 26.4688 69.6289 26.6152C69.3164 26.7617 68.9893 26.835 68.6475 26.835C68.1982 26.835 67.7979 26.7764 67.4463 26.6592C67.0947 26.5518 66.7969 26.4102 66.5527 26.2344C66.3184 26.0586 66.1377 25.8682 66.0107 25.6631C65.8936 25.458 65.835 25.2676 65.835 25.0918C65.835 24.7598 65.9766 24.5303 66.2598 24.4033C66.543 24.2666 66.9336 24.1543 67.4316 24.0664C67.4316 24.0566 67.4854 23.9834 67.5928 23.8467C67.7002 23.71 67.8271 23.5537 67.9736 23.3779C68.1201 23.2021 68.2617 23.0312 68.3984 22.8652C68.5449 22.6895 68.6475 22.5576 68.7061 22.4697C69.0869 21.9424 69.4824 21.3955 69.8926 20.8291C70.3125 20.2529 70.7715 19.5938 71.2695 18.8516V18.8662C71.5234 18.4951 71.7285 18.1875 71.8848 17.9434C72.0508 17.6992 72.207 17.4697 72.3535 17.2549C72.5 17.04 72.6514 16.8203 72.8076 16.5957C72.9736 16.3711 73.1738 16.0928 73.4082 15.7607C74.0137 14.9111 74.541 14.1934 74.9902 13.6074C75.4492 13.0117 75.8252 12.5186 76.1182 12.1279C76.4697 11.5811 76.8018 11.0586 77.1143 10.5605C77.251 10.3457 77.3828 10.1309 77.5098 9.91602C77.6367 9.69141 77.7588 9.47656 77.876 9.27148C77.9932 9.06641 78.0957 8.87598 78.1836 8.7002C78.2812 8.51465 78.3545 8.3584 78.4033 8.23145C79.5654 5.38965 80.5615 3.96875 81.3916 3.96875C81.7529 3.96875 82.0459 3.99805 82.2705 4.05664C82.4951 4.10547 82.666 4.19824 82.7832 4.33496C82.9102 4.46191 82.9932 4.63281 83.0322 4.84766C83.0811 5.0625 83.1055 5.33105 83.1055 5.65332C83.1055 5.95605 83.1055 6.19531 83.1055 6.37109C83.1055 6.53711 83.1006 6.68359 83.0908 6.81055C83.0811 6.9375 83.0713 7.06445 83.0615 7.19141C83.0615 7.31836 83.0518 7.48926 83.0322 7.7041C83.2666 8.20215 83.4912 8.71484 83.7061 9.24219C83.9307 9.76953 84.1406 10.292 84.3359 10.8096C84.375 10.9268 84.458 11.1758 84.585 11.5566C84.7217 11.9277 84.8779 12.3672 85.0537 12.875C85.2393 13.3828 85.4297 13.9199 85.625 14.4863C85.8301 15.0527 86.0156 15.585 86.1816 16.083C86.3574 16.5811 86.5088 17.0107 86.6357 17.3721C86.7627 17.7334 86.8457 17.9629 86.8848 18.0605C87.0117 18.6074 87.3682 19.5107 87.9541 20.7705C88.0322 20.9268 88.0957 21.0635 88.1445 21.1807C88.2031 21.2979 88.2666 21.4199 88.335 21.5469C88.4131 21.6738 88.5107 21.8203 88.6279 21.9863C88.7451 22.1523 88.9014 22.3672 89.0967 22.6309C89.7705 23.5488 90.1074 24.2227 90.1074 24.6523ZM94.4287 21.6055C94.4287 21.1562 94.4531 20.707 94.502 20.2578C94.5605 19.7988 94.6289 19.3496 94.707 18.9102C94.7949 18.4609 94.8877 18.0264 94.9854 17.6064C95.083 17.1865 95.1709 16.7861 95.249 16.4053C95.3564 15.8975 95.4541 15.4434 95.542 15.043C95.6299 14.6426 95.6836 14.2715 95.7031 13.9297C95.5566 13.959 95.3906 13.9883 95.2051 14.0176C95.0293 14.0371 94.8486 14.0615 94.6631 14.0908C94.4775 14.1104 94.2969 14.125 94.1211 14.1348C93.9453 14.1445 93.7988 14.1494 93.6816 14.1494C93.3789 14.1494 93.1152 14.1299 92.8906 14.0908C92.6758 14.042 92.4951 13.959 92.3486 13.8418C92.2021 13.7148 92.0947 13.5439 92.0264 13.3291C91.958 13.1045 91.9238 12.8213 91.9238 12.4795C91.9238 12.2646 91.9727 12.084 92.0703 11.9375C92.1777 11.791 92.3145 11.6738 92.4805 11.5859C92.6562 11.498 92.8467 11.4395 93.0518 11.4102C93.2666 11.3711 93.4766 11.3516 93.6816 11.3516C93.7598 11.3516 93.9111 11.3418 94.1357 11.3223C94.3604 11.293 94.5996 11.2637 94.8535 11.2344C95.1074 11.2051 95.3564 11.1758 95.6006 11.1465C95.8447 11.1172 96.0254 11.0977 96.1426 11.0879C96.2207 11.0879 96.2939 11.0293 96.3623 10.9121C96.4404 10.7949 96.5088 10.6582 96.5674 10.502C96.6357 10.3359 96.6943 10.1699 96.7432 10.0039C96.792 9.82812 96.8262 9.68164 96.8457 9.56445C96.8945 9.30078 96.9629 8.97852 97.0508 8.59766C97.1484 8.2168 97.251 7.82617 97.3584 7.42578C97.4756 7.02539 97.5928 6.64453 97.71 6.2832C97.8369 5.91211 97.959 5.61914 98.0762 5.4043C98.2324 5.10156 98.4033 4.87207 98.5889 4.71582C98.7744 4.55957 99.0527 4.48145 99.4238 4.48145C99.9414 4.48145 100.317 4.60352 100.552 4.84766C100.796 5.0918 100.918 5.46777 100.918 5.97559C100.918 6.20996 100.864 6.5127 100.757 6.88379C100.659 7.25488 100.547 7.65527 100.42 8.08496C100.293 8.50488 100.171 8.93457 100.054 9.37402C99.9463 9.80371 99.8877 10.1895 99.8779 10.5312C100.073 10.5312 100.356 10.5117 100.728 10.4727C101.099 10.4336 101.489 10.3896 101.899 10.3408C102.31 10.2822 102.7 10.2236 103.071 10.165C103.452 10.1064 103.74 10.0576 103.936 10.0186C104.346 9.93066 104.658 9.86719 104.873 9.82812C105.098 9.7793 105.298 9.73535 105.474 9.69629C105.659 9.65723 105.854 9.61328 106.06 9.56445C106.274 9.50586 106.572 9.42285 106.953 9.31543C107.1 9.43262 107.217 9.52539 107.305 9.59375C107.393 9.66211 107.456 9.7207 107.495 9.76953C107.544 9.80859 107.573 9.84766 107.583 9.88672C107.603 9.92578 107.612 9.96973 107.612 10.0186C107.612 10.3994 107.437 10.751 107.085 11.0732C106.733 11.3857 106.289 11.6641 105.752 11.9082C105.215 12.1523 104.629 12.3623 103.994 12.5381C103.369 12.7041 102.778 12.8359 102.222 12.9336C101.812 13.002 101.44 13.0605 101.108 13.1094C100.786 13.1582 100.503 13.207 100.259 13.2559C100.015 13.2949 99.8145 13.3438 99.6582 13.4023C99.502 13.4512 99.3848 13.5146 99.3066 13.5928C99.1797 14.0322 99.0332 14.5596 98.8672 15.1748C98.7109 15.7803 98.5596 16.4199 98.4131 17.0938C98.2666 17.7676 98.1445 18.4512 98.0469 19.1445C97.9492 19.8281 97.9004 20.4678 97.9004 21.0635C97.9004 21.7373 98.0322 22.2402 98.2959 22.5723C98.5596 22.9043 98.9307 23.0703 99.4092 23.0703C99.8486 23.0703 100.278 23.041 100.698 22.9824C101.128 22.9141 101.572 22.7969 102.031 22.6309C102.5 22.4551 102.993 22.2207 103.511 21.9277C104.038 21.6348 104.624 21.2588 105.269 20.7998C105.444 20.6631 105.625 20.5117 105.811 20.3457C106.006 20.1797 106.201 20.0234 106.396 19.877C106.592 19.7207 106.792 19.5938 106.997 19.4961C107.202 19.3887 107.412 19.335 107.627 19.335C107.822 19.335 107.974 19.3838 108.081 19.4814C108.198 19.5693 108.257 19.7109 108.257 19.9062C108.257 20.0527 108.208 20.2334 108.11 20.4482C108.013 20.6533 107.876 20.873 107.7 21.1074C107.524 21.3418 107.314 21.5859 107.07 21.8398C106.836 22.084 106.572 22.3184 106.279 22.543C105.713 22.9922 105.117 23.4219 104.492 23.832C103.877 24.2324 103.247 24.584 102.603 24.8867C101.968 25.1895 101.328 25.4287 100.684 25.6045C100.039 25.7803 99.3994 25.8682 98.7646 25.8682C97.9834 25.8682 97.3193 25.751 96.7725 25.5166C96.2256 25.2725 95.7764 24.9502 95.4248 24.5498C95.083 24.1494 94.8291 23.6953 94.6631 23.1875C94.5068 22.6699 94.4287 22.1426 94.4287 21.6055ZM114.688 12.9189C114.688 12.5381 114.624 12.2695 114.497 12.1133C114.38 11.957 114.263 11.8789 114.146 11.8789C113.882 11.8789 113.613 11.9668 113.34 12.1426C113.076 12.3184 112.817 12.5527 112.563 12.8457C112.319 13.1387 112.08 13.4756 111.846 13.8564C111.621 14.2275 111.421 14.6182 111.245 15.0283C111.069 15.4287 110.923 15.8291 110.806 16.2295C110.688 16.6201 110.61 16.9766 110.571 17.2988C111.187 16.8008 111.748 16.3369 112.256 15.9072C112.764 15.4678 113.193 15.0625 113.545 14.6914C113.906 14.3203 114.185 13.9883 114.38 13.6953C114.585 13.3926 114.688 13.1338 114.688 12.9189ZM125.703 12.7285C125.703 12.9434 125.605 13.2998 125.41 13.7979C125.215 14.2959 124.946 14.8623 124.604 15.4971C124.263 16.1221 123.862 16.7861 123.403 17.4893C122.944 18.1826 122.451 18.8369 121.924 19.4521C121.377 20.0967 120.762 20.7266 120.078 21.3418C119.395 21.957 118.657 22.5088 117.866 22.9971C117.085 23.4756 116.255 23.8613 115.376 24.1543C114.507 24.4473 113.604 24.5938 112.666 24.5938C111.66 24.5938 110.806 24.4326 110.103 24.1104C109.399 23.7783 108.823 23.3438 108.374 22.8066C107.935 22.2695 107.612 21.6592 107.407 20.9756C107.212 20.292 107.114 19.5986 107.114 18.8955C107.114 18.2803 107.173 17.665 107.29 17.0498C107.417 16.4248 107.588 15.8145 107.803 15.2188C108.027 14.623 108.291 14.0469 108.594 13.4902C108.896 12.9336 109.233 12.4209 109.604 11.9521C109.839 11.6494 110.127 11.3271 110.469 10.9854C110.82 10.6436 111.216 10.3311 111.655 10.0479C112.104 9.75488 112.593 9.51562 113.12 9.33008C113.647 9.13477 114.209 9.03711 114.805 9.03711C115.264 9.03711 115.664 9.13477 116.006 9.33008C116.357 9.51562 116.646 9.75488 116.87 10.0479C117.104 10.3408 117.28 10.668 117.397 11.0293C117.515 11.3809 117.573 11.7178 117.573 12.04C117.573 12.6162 117.461 13.1826 117.236 13.7393C117.012 14.2959 116.655 14.8672 116.167 15.4531C115.679 16.0391 115.039 16.6494 114.248 17.2842C113.467 17.9189 112.515 18.5977 111.392 19.3203C111.313 19.3691 111.226 19.4229 111.128 19.4814C111.03 19.54 110.938 19.5986 110.85 19.6572C110.762 19.7158 110.688 19.7695 110.63 19.8184C110.581 19.8574 110.557 19.8818 110.557 19.8916C110.605 20.1064 110.669 20.3213 110.747 20.5361C110.825 20.751 110.952 20.9463 111.128 21.1221C111.304 21.2881 111.543 21.4248 111.846 21.5322C112.148 21.6396 112.544 21.6934 113.032 21.6934C113.413 21.6934 113.818 21.6543 114.248 21.5762C114.678 21.4883 115.112 21.3613 115.552 21.1953C115.991 21.0293 116.421 20.8291 116.841 20.5947C117.271 20.3506 117.676 20.0723 118.057 19.7598C118.555 19.3594 119.077 18.8857 119.624 18.3389C120.171 17.792 120.708 17.2012 121.235 16.5664C121.772 15.9219 122.28 15.2432 122.759 14.5303C123.247 13.8174 123.677 13.0898 124.048 12.3477C124.194 12.0645 124.385 11.8691 124.619 11.7617C124.854 11.6543 125.054 11.6006 125.22 11.6006C125.337 11.6006 125.444 11.6787 125.542 11.835C125.649 11.9912 125.703 12.2891 125.703 12.7285ZM135.342 19.54C134.58 20.6045 133.809 21.5713 133.027 22.4404C132.246 23.2998 131.47 24.0371 130.698 24.6523C129.937 25.2578 129.185 25.7266 128.442 26.0586C127.71 26.3906 127.007 26.5566 126.333 26.5566C125.161 26.5566 124.233 26.0879 123.55 25.1504C122.876 24.2129 122.539 22.8408 122.539 21.0342C122.539 20.0869 122.593 19.0469 122.7 17.9141C122.817 16.7812 122.969 15.6338 123.154 14.4717C123.34 13.3096 123.545 12.1719 123.77 11.0586C123.994 9.93555 124.214 8.91016 124.429 7.98242C124.604 7.2207 124.79 6.56152 124.985 6.00488C125.19 5.44824 125.41 4.99414 125.645 4.64258C125.889 4.28125 126.157 4.01758 126.45 3.85156C126.743 3.67578 127.08 3.58789 127.461 3.58789C127.734 3.58789 127.954 3.6416 128.12 3.74902C128.296 3.85645 128.433 3.99805 128.53 4.17383C128.638 4.33984 128.711 4.53516 128.75 4.75977C128.789 4.98437 128.809 5.21387 128.809 5.44824C128.809 5.72168 128.745 6.1123 128.618 6.62012C128.491 7.11816 128.34 7.64551 128.164 8.20215C127.998 8.75879 127.832 9.30078 127.666 9.82812C127.5 10.3457 127.378 10.7656 127.3 11.0879C127.163 11.6934 127.021 12.4014 126.875 13.2119C126.729 14.0127 126.592 14.8428 126.465 15.7021C126.348 16.5615 126.25 17.416 126.172 18.2656C126.094 19.1055 126.055 19.877 126.055 20.5801C126.055 21.1172 126.094 21.5664 126.172 21.9277C126.25 22.2793 126.348 22.5625 126.465 22.7773C126.582 22.9824 126.709 23.1289 126.846 23.2168C126.982 23.2949 127.109 23.334 127.227 23.334C127.656 23.334 128.159 23.1631 128.735 22.8213C129.321 22.4795 129.937 22.0303 130.581 21.4736C131.235 20.9072 131.899 20.2578 132.573 19.5254C133.257 18.7832 133.906 18.0166 134.521 17.2256C134.688 16.9717 134.844 16.7715 134.99 16.625C135.146 16.4688 135.352 16.3906 135.605 16.3906C135.83 16.3906 136.001 16.4688 136.118 16.625C136.235 16.7715 136.294 16.9375 136.294 17.123C136.294 17.2891 136.27 17.4746 136.221 17.6797C136.172 17.8848 136.104 18.0947 136.016 18.3096C135.928 18.5244 135.825 18.7393 135.708 18.9541C135.601 19.1592 135.483 19.3545 135.356 19.54H135.342ZM141.099 5.16992C141.099 5.27734 141.064 5.45801 140.996 5.71191C140.928 5.95605 140.85 6.21484 140.762 6.48828C140.674 6.75195 140.581 7.00098 140.483 7.23535C140.396 7.45996 140.327 7.61133 140.278 7.68945C140.229 7.77734 140.142 7.875 140.015 7.98242C139.888 8.08984 139.741 8.19238 139.575 8.29004C139.419 8.37793 139.258 8.45605 139.092 8.52441C138.926 8.59277 138.779 8.62695 138.652 8.62695C138.506 8.62695 138.34 8.56836 138.154 8.45117C137.979 8.32422 137.812 8.17285 137.656 7.99707C137.5 7.81152 137.368 7.61621 137.261 7.41113C137.153 7.20605 137.1 7.01562 137.1 6.83984C137.1 6.52734 137.188 6.19043 137.363 5.8291C137.539 5.45801 137.769 5.11621 138.052 4.80371C138.345 4.48145 138.667 4.21777 139.019 4.0127C139.37 3.79785 139.722 3.69043 140.073 3.69043C140.181 3.69043 140.293 3.72949 140.41 3.80762C140.537 3.87598 140.649 3.97852 140.747 4.11523C140.854 4.24219 140.938 4.39844 140.996 4.58398C141.064 4.75977 141.099 4.95508 141.099 5.16992ZM148.276 21.5176C146.509 22.9434 144.858 24.0469 143.325 24.8281C141.802 25.6094 140.415 26 139.165 26C138.452 26 137.817 25.9219 137.261 25.7656C136.704 25.6094 136.235 25.3457 135.854 24.9746C135.483 24.5938 135.2 24.0908 135.005 23.4658C134.81 22.8311 134.712 22.04 134.712 21.0928C134.712 20.8486 134.751 20.5117 134.829 20.082C134.917 19.6523 135.01 19.2031 135.107 18.7344C135.205 18.2656 135.293 17.8164 135.371 17.3867C135.459 16.957 135.503 16.6152 135.503 16.3613C135.503 16.0293 135.498 15.7559 135.488 15.541C135.488 15.3164 135.488 15.126 135.488 14.9697C135.488 14.7451 135.518 14.5254 135.576 14.3105C135.635 14.0859 135.747 13.8857 135.913 13.71C136.089 13.5342 136.333 13.3926 136.646 13.2852C136.968 13.168 137.388 13.1094 137.905 13.1094C138.071 13.1094 138.232 13.1387 138.389 13.1973C138.545 13.2559 138.682 13.3389 138.799 13.4463C138.926 13.5439 139.028 13.666 139.106 13.8125C139.185 13.9492 139.224 14.1055 139.224 14.2812C139.224 14.6523 139.155 15.1309 139.019 15.7168C138.882 16.293 138.73 16.8984 138.564 17.5332C138.398 18.1582 138.247 18.7686 138.11 19.3643C137.974 19.96 137.905 20.458 137.905 20.8584C137.905 21.6299 138.037 22.2061 138.301 22.5869C138.564 22.958 139.033 23.1436 139.707 23.1436C140.713 23.1436 141.865 22.8311 143.164 22.2061C144.473 21.5811 145.928 20.6094 147.529 19.291C147.607 19.2227 147.7 19.1494 147.808 19.0713C147.925 18.9834 148.071 18.9395 148.247 18.9395C148.296 18.9395 148.369 18.9492 148.467 18.9688C148.564 18.9785 148.662 19.0078 148.76 19.0566C148.857 19.1055 148.94 19.1836 149.009 19.291C149.087 19.3887 149.126 19.5205 149.126 19.6865C149.126 19.7842 149.121 19.9062 149.111 20.0527C149.102 20.1895 149.067 20.3408 149.009 20.5068C148.96 20.6631 148.877 20.8291 148.76 21.0049C148.643 21.1807 148.481 21.3516 148.276 21.5176ZM155.264 13.1387C155.264 12.9824 155.234 12.8555 155.176 12.7578C155.117 12.6504 155.049 12.5674 154.971 12.5088C154.902 12.4502 154.829 12.4111 154.751 12.3916C154.683 12.3623 154.634 12.3477 154.604 12.3477C154.165 12.3477 153.76 12.5186 153.389 12.8604C153.018 13.1924 152.686 13.6221 152.393 14.1494C152.1 14.6768 151.841 15.2578 151.616 15.8926C151.401 16.5273 151.221 17.1426 151.074 17.7383C151.66 17.2891 152.207 16.874 152.715 16.4932C153.223 16.1123 153.662 15.7412 154.033 15.3799C154.414 15.0186 154.712 14.6572 154.927 14.2959C155.151 13.9346 155.264 13.5488 155.264 13.1387ZM162.368 18.749C162.368 19.1104 162.227 19.5205 161.943 19.9795C161.66 20.4385 161.279 20.917 160.801 21.415C160.273 21.9521 159.692 22.4551 159.058 22.9238C158.433 23.3828 157.778 23.7832 157.095 24.125C156.421 24.457 155.732 24.7207 155.029 24.916C154.326 25.1016 153.643 25.1943 152.979 25.1943C152.158 25.1943 151.426 25.0674 150.781 24.8135C150.146 24.5498 149.604 24.1689 149.155 23.6709C148.716 23.1631 148.379 22.5332 148.145 21.7812C147.91 21.0293 147.793 20.165 147.793 19.1885C147.793 18.6025 147.847 18.0068 147.954 17.4014C148.071 16.7959 148.237 16.1953 148.452 15.5996C148.667 14.9941 148.936 14.4131 149.258 13.8564C149.58 13.29 149.946 12.7578 150.356 12.2598C150.62 11.9473 150.918 11.6348 151.25 11.3223C151.592 11 151.968 10.7119 152.378 10.458C152.788 10.2041 153.237 9.99902 153.726 9.84277C154.224 9.67676 154.761 9.59375 155.337 9.59375C155.806 9.59375 156.221 9.68164 156.582 9.85742C156.953 10.0234 157.266 10.2383 157.52 10.502C157.773 10.7656 157.969 11.0635 158.105 11.3955C158.242 11.7275 158.311 12.0547 158.311 12.377C158.311 13.1387 158.145 13.8516 157.812 14.5156C157.49 15.1699 157.036 15.7998 156.45 16.4053C155.864 17.001 155.156 17.5869 154.326 18.1631C153.506 18.7393 152.598 19.3301 151.602 19.9355C151.553 19.9551 151.475 19.999 151.367 20.0674C151.27 20.1357 151.221 20.1797 151.221 20.1992C151.23 20.3945 151.279 20.6045 151.367 20.8291C151.455 21.0537 151.592 21.2637 151.777 21.459C151.963 21.6543 152.197 21.8203 152.48 21.957C152.773 22.084 153.12 22.1475 153.521 22.1475C154.136 22.1475 154.756 22.0645 155.381 21.8984C156.006 21.7227 156.621 21.4736 157.227 21.1514C157.832 20.8291 158.423 20.4385 158.999 19.9795C159.575 19.5205 160.122 19.0029 160.64 18.4268C160.835 18.2021 161.025 18.041 161.211 17.9434C161.406 17.8457 161.587 17.7969 161.753 17.7969C161.919 17.7969 162.061 17.8652 162.178 18.002C162.305 18.1387 162.368 18.3877 162.368 18.749ZM160.83 7.48438C160.83 7.63086 160.791 7.78223 160.713 7.93848C160.645 8.09473 160.547 8.23633 160.42 8.36328C160.303 8.48047 160.166 8.57813 160.01 8.65625C159.854 8.73437 159.688 8.77344 159.512 8.77344C159.307 8.77344 159.106 8.71484 158.911 8.59766C158.716 8.48047 158.53 8.33887 158.354 8.17285C158.188 7.99707 158.037 7.81152 157.9 7.61621C157.764 7.4209 157.642 7.24512 157.534 7.08887C157.456 6.95215 157.363 6.81543 157.256 6.67871C157.158 6.54199 157.021 6.34668 156.846 6.09277C156.699 5.8877 156.543 5.6875 156.377 5.49219C156.221 5.29688 156.074 5.07227 155.938 4.81836C155.918 4.7793 155.879 4.7207 155.82 4.64258C155.771 4.56445 155.713 4.49121 155.645 4.42285C155.586 4.34473 155.522 4.27637 155.454 4.21777C155.396 4.15918 155.347 4.12988 155.308 4.12988C155.269 4.12988 155.22 4.15918 155.161 4.21777C155.103 4.2666 155.039 4.33008 154.971 4.4082C154.902 4.47656 154.829 4.55469 154.751 4.64258C154.683 4.73047 154.609 4.80859 154.531 4.87695C154.385 5.01367 154.214 5.17969 154.019 5.375C153.823 5.57031 153.662 5.73633 153.535 5.87305C153.398 6.01953 153.223 6.2002 153.008 6.41504C152.793 6.62988 152.476 6.9375 152.056 7.33789C151.968 7.42578 151.87 7.52344 151.763 7.63086C151.655 7.73828 151.548 7.84082 151.44 7.93848C151.333 8.02637 151.221 8.09961 151.104 8.1582C150.996 8.2168 150.889 8.24609 150.781 8.24609C150.4 8.24609 150.127 8.14355 149.961 7.93848C149.795 7.72363 149.712 7.40625 149.712 6.98633C149.712 6.79102 149.761 6.5957 149.858 6.40039C149.956 6.19531 150.103 6 150.298 5.81445C150.405 5.6875 150.508 5.56055 150.605 5.43359C150.713 5.29688 150.82 5.1748 150.928 5.06738C151.25 4.73535 151.528 4.4375 151.763 4.17383C152.007 3.91016 152.256 3.66602 152.51 3.44141C152.783 3.17773 153.047 2.9043 153.301 2.62109C153.564 2.32812 153.809 2.0498 154.033 1.78613C154.648 1.02441 155.244 0.643555 155.82 0.643555C156.016 0.643555 156.235 0.72168 156.479 0.87793C156.724 1.02441 156.934 1.22949 157.109 1.49316C157.256 1.71777 157.412 1.97656 157.578 2.26953C157.744 2.5625 157.925 2.88477 158.12 3.23633C158.306 3.58789 158.467 3.85156 158.604 4.02734C158.74 4.20312 158.828 4.31055 158.867 4.34961C158.926 4.4082 158.994 4.48633 159.072 4.58398C159.16 4.68164 159.243 4.78906 159.321 4.90625C159.409 5.02344 159.497 5.14062 159.585 5.25781C159.673 5.36523 159.756 5.46289 159.834 5.55078C160.117 5.85352 160.308 6.09277 160.405 6.26855C160.503 6.44434 160.566 6.55664 160.596 6.60547C160.703 6.77148 160.767 6.93262 160.786 7.08887C160.815 7.24512 160.83 7.37695 160.83 7.48438Z" fill="white"/>
</svg>
